HIERARCHY
ROOT Hips
{
	OFFSET 0.000000 0.000000 0.000000
	CHANNELS 6 Xposition Yposition Zposition Zrotation Yrotation Xrotation 
	JOINT LeftUpLeg_virtual
	{
		OFFSET 0.000000 0.000000 0.000000
		CHANNELS 3 Zrotation Yrotation Xrotation
		JOINT LeftUpLeg
		{
			OFFSET 10.205400 -3.823500 0.155100
			CHANNELS 3 Zrotation Yrotation Xrotation
			JOINT LeftLeg
			{
				OFFSET 0.708757 -12.982077 0.567790
				CHANNELS 3 Zrotation Yrotation Xrotation
				JOINT LeftFoot
				{
					OFFSET -0.708756 -10.717838 -2.184338
					CHANNELS 3 Zrotation Yrotation Xrotation
					JOINT LeftToeBase
					{
						OFFSET 0.108149 -7.191104 7.560241
						CHANNELS 3 Zrotation Yrotation Xrotation
						End Site
						{
							OFFSET 0.000000 0.000000 0.000000
						}
					}
				}
			}
		}
	}
	JOINT RightUpLeg_virtual
	{
		OFFSET 0.000000 0.000000 0.000000
		CHANNELS 3 Zrotation Yrotation Xrotation
		JOINT RightUpLeg
		{
			OFFSET -10.205400 -3.823500 0.005500
			CHANNELS 3 Zrotation Yrotation Xrotation
			JOINT RightLeg
			{
				OFFSET -0.708756 -12.982134 0.610632
				CHANNELS 3 Zrotation Yrotation Xrotation
				JOINT RightFoot
				{
					OFFSET 0.708754 -10.717769 -1.945823
					CHANNELS 3 Zrotation Yrotation Xrotation
					JOINT RightToeBase
					{
						OFFSET -0.108140 -7.191069 7.372968
						CHANNELS 3 Zrotation Yrotation Xrotation
						End Site
						{
							OFFSET 0.000000 0.000000 0.000000
						}
					}
				}
			}
		}
	}
	JOINT Spine_virtual
	{
		OFFSET 0.000000 0.000000 0.000000
		CHANNELS 3 Zrotation Yrotation Xrotation
		JOINT Spine
		{
			OFFSET 0.000000 6.876099 0.125700
			CHANNELS 3 Zrotation Yrotation Xrotation
			JOINT Spine1
			{
				OFFSET 0.000000 8.022060 0.146608
				CHANNELS 3 Zrotation Yrotation Xrotation
				JOINT Spine2
				{
					OFFSET 0.000000 9.168068 0.167552
					CHANNELS 3 Zrotation Yrotation Xrotation
					JOINT Neck_virtual
					{
						OFFSET 0.000000 0.000000 0.000000
						CHANNELS 3 Zrotation Yrotation Xrotation
						JOINT Neck
						{
							OFFSET 0.000000 10.314075 0.188496
							CHANNELS 3 Zrotation Yrotation Xrotation
							JOINT Head
							{
								OFFSET 0.000000 7.643700 -2.377400
								CHANNELS 3 Zrotation Yrotation Xrotation
								End Site
								{
									OFFSET 0.000000 0.000000 0.000000
								}
							}
						}
					}
					JOINT LeftShoulder_virtual
					{
						OFFSET 0.000000 0.000000 0.000000
						CHANNELS 3 Zrotation Yrotation Xrotation
						JOINT LeftShoulder
						{
							OFFSET 4.392200 8.824978 0.174984
							CHANNELS 3 Zrotation Yrotation Xrotation
							JOINT LeftArm
							{
								OFFSET 8.771219 -2.981674 -0.026999
								CHANNELS 3 Zrotation Yrotation Xrotation
								JOINT LeftForeArm
								{
									OFFSET 8.512804 0.000000 -0.000000
									CHANNELS 3 Zrotation Yrotation Xrotation
									JOINT LeftHand
									{
										OFFSET 18.484802 0.000000 -0.000000
										CHANNELS 3 Zrotation Yrotation Xrotation
										End Site
										{
											OFFSET 0.000000 0.000000 0.000000
										}
									}
								}
							}
						}
					}
					JOINT RightShoulder_virtual
					{
						OFFSET 0.000000 0.000000 0.000000
						CHANNELS 3 Zrotation Yrotation Xrotation
						JOINT RightShoulder
						{
							OFFSET -4.392200 8.824993 0.141379
							CHANNELS 3 Zrotation Yrotation Xrotation
							JOINT RightArm
							{
								OFFSET -8.771282 -2.981682 -0.094208
								CHANNELS 3 Zrotation Yrotation Xrotation
								JOINT RightForeArm
								{
									OFFSET -8.494598 0.000000 0.000000
									CHANNELS 3 Zrotation Yrotation Xrotation
									JOINT RightHand
									{
										OFFSET -18.483803 0.000000 0.000001
										CHANNELS 3 Zrotation Yrotation Xrotation
										End Site
										{
											OFFSET 0.000000 0.000000 0.000000
										}
									}
								}
							}
						}
					}
				}
			}
		}
	}
}
MOTION
Frames: 14
Frame Time: 0.033333
3.439940 34.715408 -40.154518 179.920747 0.839786 -179.899820 -0.609267 -3.405976 10.419371 -10.347992 -0.472969 -27.994645 14.382843 6.432045 16.478117 -7.076797 -0.236130 5.818895 0.000000 0.000000 0.000000 3.457187 -1.711426 10.509058 3.136429 9.776132 -28.188104 -6.515774 3.656275 17.592508 12.249908 2.361237 6.972988 0.000000 0.000000 0.000000 2.803323 0.261726 -4.128975 -2.908032 -1.296763 -7.347394 -0.777613 -2.333942 10.988918 0.002370 0.029751 -0.003433 -1.136835 -0.409184 13.680200 -2.504996 -2.071533 15.804897 0.000000 0.000000 0.000000 0.222350 0.417015 10.610248 -15.265321 -10.036051 1.445613 -51.074061 22.569817 15.430637 -2.165644 -33.544627 -0.568227 0.000000 0.000000 0.000000 -3.079288 1.331121 10.325624 23.727770 6.720214 3.818971 48.776010 -19.232493 10.401129 -4.972167 26.991697 -2.638299 0.000000 0.000000 0.000000 
3.461337 34.718063 -40.137058 179.837037 0.936903 -179.968272 -0.644114 -3.513043 10.378210 -10.381909 -0.466354 -27.863835 14.660222 6.500244 17.020222 -6.899945 -0.010954 5.355617 0.000000 0.000000 0.000000 3.520062 -1.649712 10.616595 3.270727 10.009882 -28.481097 -6.183825 4.529358 17.538158 12.681532 2.583181 7.571077 0.000000 0.000000 0.000000 2.686591 0.292695 -4.118933 -2.960971 -1.252946 -7.288821 -0.667077 -2.337477 11.014572 0.004003 0.047682 0.054134 -1.114515 -0.294292 13.645171 -2.564416 -2.076469 15.846143 0.000000 0.000000 0.000000 0.166557 0.325549 10.591446 -15.410771 -10.053650 1.449784 -51.036615 22.412617 15.516250 -2.191493 -33.554711 -0.511861 0.000000 0.000000 0.000000 -3.078891 1.310092 10.248437 23.774854 6.652127 3.819359 48.894893 -19.204445 10.453407 -5.078912 26.860561 -2.762568 0.000000 0.000000 0.000000 
3.486821 34.720257 -40.126072 179.826341 0.885263 -179.943847 -0.663572 -3.518810 10.138735 -10.321761 -0.493887 -27.777196 14.769015 6.509698 17.169767 -7.064853 0.007606 5.384820 0.000000 0.000000 0.000000 3.474908 -1.514815 10.437867 3.431112 9.833464 -28.432174 -6.262670 4.161192 17.877689 12.824390 2.532512 7.582120 0.000000 0.000000 0.000000 2.610882 0.326931 -4.187593 -2.918455 -1.261182 -7.315708 -0.728729 -2.369427 11.040561 0.040902 0.029035 0.033799 -1.155057 -0.400262 13.651631 -2.558489 -2.071088 15.877729 0.000000 0.000000 0.000000 0.182634 0.365548 10.604950 -15.508631 -10.034411 1.440017 -50.878038 22.230801 15.665457 -2.163557 -33.504612 -0.521881 0.000000 0.000000 0.000000 -3.108710 1.236663 10.306971 23.780886 6.733583 3.701976 49.101916 -19.189488 10.292359 -5.010322 26.918839 -2.790576 0.000000 0.000000 0.000000 
3.504553 34.731037 -40.133705 179.797121 0.837894 -179.890066 -0.746598 -3.393093 9.900026 -10.224647 -0.456962 -27.701512 14.823887 6.597839 17.333808 -7.339938 -0.014363 5.371077 0.000000 0.000000 0.000000 3.395251 -1.317692 10.182119 3.622680 9.584584 -28.259150 -6.380680 3.715357 18.204027 13.065528 2.457817 7.631767 0.000000 0.000000 0.000000 2.475128 0.413285 -4.240805 -2.925262 -1.248652 -7.372477 -0.651083 -2.416287 11.036559 0.066023 0.023668 0.015814 -1.154865 -0.407544 13.648661 -2.433711 -1.925529 15.991215 0.000000 0.000000 0.000000 0.166117 0.358177 10.573392 -15.521257 -10.000187 1.444736 -50.590986 22.101942 15.965960 -2.151757 -33.542926 -0.529321 0.000000 0.000000 0.000000 -3.125507 1.316303 10.282195 23.793975 6.622695 3.709507 49.354906 -19.233249 10.143520 -5.010903 27.112412 -2.826824 0.000000 0.000000 0.000000 
3.512059 34.744598 -40.149860 179.774240 0.829587 -179.881351 -0.827016 -3.252870 9.777800 -10.160298 -0.394517 -27.604911 14.876359 6.715114 17.388741 -7.639532 -0.028889 5.448424 0.000000 0.000000 0.000000 3.327270 -1.127124 10.000007 3.767171 9.355997 -28.051689 -6.523796 3.343574 18.483240 13.441945 2.439802 7.555268 0.000000 0.000000 0.000000 2.392375 0.458944 -4.270369 -2.860903 -1.231619 -7.476862 -0.764410 -2.455803 11.100972 0.104598 0.031480 -0.063733 -1.106204 -0.453188 13.621305 -2.343784 -2.107531 16.090319 0.000000 0.000000 0.000000 0.255053 0.331514 10.542135 -15.481945 -9.850629 1.492689 -50.165912 22.114028 16.471771 -2.093587 -33.544760 -0.574345 0.000000 0.000000 0.000000 -3.055195 1.286544 10.339273 23.771676 6.651596 3.702032 49.609713 -19.357837 9.971047 -5.033123 27.412744 -2.937934 0.000000 0.000000 0.000000 
3.525459 34.752731 -40.152512 179.804429 0.807896 -179.912456 -0.858082 -3.192077 9.696352 -10.106030 -0.325120 -27.528774 14.987793 6.712223 17.504965 -7.891871 -0.028212 5.385888 0.000000 0.000000 0.000000 3.324725 -1.056204 9.920942 3.912176 9.145175 -27.910709 -6.659687 3.012143 18.455082 13.847980 2.369225 7.769041 0.000000 0.000000 0.000000 2.354617 0.431284 -4.303786 -2.825719 -1.074977 -7.535404 -0.685493 -2.440182 10.990546 0.017238 0.035221 0.029586 -0.912330 -0.646158 13.548818 -1.967813 -1.966950 16.282862 0.000000 0.000000 0.000000 0.303636 0.256472 10.514477 -15.313892 -9.839298 1.400469 -49.568821 22.273928 17.023454 -2.130494 -33.515489 -0.517603 0.000000 0.000000 0.000000 -3.022941 1.185591 10.268522 23.769338 6.667855 3.778559 49.872942 -19.606661 9.778900 -5.120453 27.852801 -3.066061 0.000000 0.000000 0.000000 
3.548406 34.758862 -40.141685 179.781275 0.887043 -179.890312 -0.915905 -3.250406 9.574023 -10.011433 -0.239843 -27.465627 15.137605 6.801798 17.593990 -8.060985 -0.016044 5.285854 0.000000 0.000000 0.000000 3.300164 -1.078058 9.710170 4.058095 8.903153 -27.763274 -6.734530 2.877990 18.447193 14.233313 2.298742 7.985795 0.000000 0.000000 0.000000 2.281247 0.374728 -4.505676 -2.766475 -0.914508 -7.596769 -0.577337 -2.469467 11.015365 0.017173 0.043050 -0.037791 -0.953632 -0.544791 13.610966 -1.862395 -2.076299 16.590352 0.000000 0.000000 0.000000 0.310355 0.153224 10.584070 -15.182754 -9.706929 1.438393 -48.950555 22.565944 17.685458 -2.207240 -33.683935 -0.430871 0.000000 0.000000 0.000000 -3.042169 1.140492 10.299111 23.852190 6.708673 3.871788 50.161237 -19.975617 9.503019 -5.249213 28.303585 -3.352685 0.000000 0.000000 0.000000 
3.558804 34.757408 -40.138321 179.810112 1.080960 -179.880490 -0.866030 -3.321601 9.483972 -10.018463 -0.223669 -27.346600 15.276920 6.906675 17.684196 -8.115131 0.038338 5.207945 0.000000 0.000000 0.000000 3.322229 -1.097586 9.409213 4.226573 8.693174 -27.500594 -6.757721 2.869195 18.402618 14.546220 2.245068 8.097047 0.000000 0.000000 0.000000 2.371778 0.271978 -4.748681 -2.750701 -0.758782 -7.640513 -0.624705 -2.492275 11.061663 0.060350 0.049509 0.033666 -0.933929 -0.593406 13.601792 -1.605188 -2.073627 16.917731 0.000000 0.000000 0.000000 0.326575 0.141212 10.517390 -15.097375 -9.470369 1.489769 -48.462876 22.992010 18.224224 -2.219524 -33.948482 -0.484250 0.000000 0.000000 0.000000 -3.061783 1.068945 10.288071 24.034981 6.836419 4.034478 50.294685 -20.404246 9.337313 -5.481036 28.713678 -3.345077 0.000000 0.000000 0.000000 
3.566147 34.747238 -40.151905 179.812175 1.285502 -179.948806 -0.809061 -3.315831 9.468920 -10.000367 -0.257779 -27.153765 15.331722 7.079538 17.838151 -8.109648 0.099463 5.114989 0.000000 0.000000 0.000000 3.306896 -1.099308 9.128485 4.412977 8.468105 -27.113095 -6.739689 2.960464 18.364751 14.743226 2.226843 8.034693 0.000000 0.000000 0.000000 2.399426 0.148568 -4.962294 -2.699872 -0.537799 -7.639123 -0.637244 -2.454200 11.196791 0.037117 -0.039187 0.021926 -0.982256 -0.680442 13.644997 -1.468614 -2.156903 17.340295 0.000000 0.000000 0.000000 0.297922 0.036892 10.512601 -15.043980 -9.193171 1.543268 -48.148695 23.553639 18.597628 -2.243594 -34.493309 -0.196860 0.000000 0.000000 0.000000 -3.049115 1.060801 10.327581 24.359805 6.942478 4.233640 50.275322 -20.749228 9.160139 -5.760997 28.908718 -3.454697 0.000000 0.000000 0.000000 
3.573188 34.731712 -40.198002 179.844181 1.403098 -179.917182 -0.681184 -3.244094 9.414643 -9.966788 -0.414423 -27.098574 15.294202 7.203033 18.033053 -8.098900 0.153229 4.985455 0.000000 0.000000 0.000000 3.311210 -0.999163 8.863297 4.609443 8.287863 -26.680502 -6.752541 2.919524 18.332866 14.846606 2.267149 7.893122 0.000000 0.000000 0.000000 2.413343 0.358327 -5.250732 -2.605752 -0.466037 -7.768667 -0.726073 -2.582261 11.351092 0.042442 0.044738 0.035237 -1.027576 -0.741111 13.715822 -1.395535 -2.166199 17.832543 0.000000 0.000000 0.000000 0.234933 -0.037080 10.534432 -15.068384 -9.080725 1.600314 -47.981768 24.084388 18.842839 -2.209249 -34.896058 -0.022657 0.000000 0.000000 0.000000 -3.086986 0.938358 10.321609 24.713694 7.004347 4.465284 50.150288 -20.919633 8.864709 -5.963402 28.907922 -3.432459 0.000000 0.000000 0.000000 
3.590503 34.716351 -40.283085 179.867212 1.346413 -179.880217 -0.579374 -3.108354 9.427241 -9.928504 -0.708982 -27.153917 15.191140 7.247508 18.215968 -8.141829 0.210428 4.921813 0.000000 0.000000 0.000000 3.326080 -0.843056 8.791685 4.788548 8.161039 -26.324531 -6.807326 2.640998 18.333351 14.839050 2.348359 7.717264 0.000000 0.000000 0.000000 2.371793 0.567440 -5.481407 -2.493189 -0.361653 -7.923745 -0.803533 -2.652943 11.417932 0.026876 0.040333 0.058311 -1.126835 -0.771010 13.796565 -1.465899 -2.183029 18.373106 0.000000 0.000000 0.000000 0.232647 -0.060007 10.606443 -15.114124 -9.029113 1.728750 -48.075116 24.410589 18.858526 -1.940030 -35.105574 0.028714 0.000000 0.000000 0.000000 -3.132364 0.832094 10.383883 25.107345 7.126464 4.680249 49.812518 -20.699728 8.477749 -6.160854 28.623989 -3.383466 0.000000 0.000000 0.000000 
3.636703 34.702461 -40.373806 179.844536 1.104981 -179.918958 -0.523012 -2.867111 9.567335 -9.813104 -1.050318 -27.297857 14.983888 7.254727 18.329391 -8.224244 0.228297 5.001088 0.000000 0.000000 0.000000 3.368754 -0.589942 8.870496 4.944308 8.036397 -26.060529 -6.889159 2.219181 18.660627 14.698417 2.504025 7.160031 0.000000 0.000000 0.000000 2.269792 0.784185 -5.637800 -2.372257 -0.267409 -8.015222 -0.881319 -2.706473 11.547493 0.020161 0.051761 0.058076 -1.157367 -0.936247 13.826138 -1.548245 -2.122220 18.830026 0.000000 0.000000 0.000000 0.135007 -0.270197 10.567120 -15.171057 -8.933923 1.750935 -48.080444 24.530355 18.529765 -1.827169 -35.049751 0.371546 0.000000 0.000000 0.000000 -3.173171 0.737020 10.334710 25.380109 7.228381 4.876572 49.171259 -20.109235 8.143436 -6.427962 28.368750 -3.416378 0.000000 0.000000 0.000000 
3.697763 34.691433 -40.404678 179.914423 0.446123 -179.889534 -0.428314 -2.660548 9.676154 -9.579177 -1.328741 -27.634974 14.691395 7.097641 18.511228 -8.295286 0.171020 5.202436 0.000000 0.000000 0.000000 3.505878 -0.403481 8.871769 5.041692 7.875729 -25.933446 -7.029384 1.792310 19.036736 14.337812 2.619976 6.407422 0.000000 0.000000 0.000000 2.237042 0.871314 -5.743547 -2.224896 -0.218616 -8.115594 -0.999900 -2.770022 11.656909 0.025438 0.019002 0.015665 -1.193737 -1.050040 13.830558 -1.726097 -2.020659 19.147535 0.000000 0.000000 0.000000 0.096207 -0.268998 10.552651 -15.122729 -9.134988 1.850523 -47.894209 23.960278 18.097981 -1.528846 -34.749393 0.627105 0.000000 0.000000 0.000000 -3.247865 0.649842 10.290242 25.486706 7.483393 4.998337 48.272208 -19.152269 8.035762 -6.565829 28.383898 -3.439344 0.000000 0.000000 0.000000 
3.773215 34.680355 -40.312820 179.933233 -0.515073 -179.900271 -0.467696 -2.472060 9.630915 -9.485613 -1.042681 -28.313106 14.339670 6.486975 18.539790 -8.441595 -0.251257 5.663214 0.000000 0.000000 0.000000 3.604652 -0.329419 8.925923 5.066069 7.540392 -26.040525 -7.120942 1.587659 19.458183 13.783349 2.619726 5.836863 0.000000 0.000000 0.000000 2.205544 0.916082 -5.596488 -2.122552 -0.183960 -8.087700 -1.091681 -2.813267 11.614149 0.019341 -0.008733 0.020454 -1.302559 -1.053254 13.728480 -2.086903 -1.978780 19.295855 0.000000 0.000000 0.000000 0.044568 -0.320361 10.502245 -14.969809 -9.507225 1.955635 -47.400557 22.717081 17.584532 -1.161791 -34.936134 1.003016 0.000000 0.000000 0.000000 -3.325689 0.642600 10.246005 25.399308 7.801852 5.124004 47.332337 -18.026903 8.518105 -6.618499 29.325229 -3.524116 0.000000 0.000000 0.000000 
